<svg id="visual" viewBox="0 0 900 600" width="900" height="600" xmlns="http://www.w3.org/2000/svg" xmlns:xlink="http://www.w3.org/1999/xlink" version="1.1"><rect x="0" y="0" width="900" height="600" fill="#2a2c2d"></rect><defs><linearGradient id="grad1_0" x1="33.3%" y1="100%" x2="100%" y2="0%"><stop offset="20%" stop-color="#191a1a" stop-opacity="1"></stop><stop offset="80%" stop-color="#191a1a" stop-opacity="1"></stop></linearGradient></defs><defs><linearGradient id="grad1_1" x1="33.3%" y1="100%" x2="100%" y2="0%"><stop offset="20%" stop-color="#191a1a" stop-opacity="1"></stop><stop offset="80%" stop-color="#1e2020" stop-opacity="1"></stop></linearGradient></defs><defs><linearGradient id="grad1_2" x1="33.3%" y1="100%" x2="100%" y2="0%"><stop offset="20%" stop-color="#242626" stop-opacity="1"></stop><stop offset="80%" stop-color="#1e2020" stop-opacity="1"></stop></linearGradient></defs><defs><linearGradient id="grad1_3" x1="33.3%" y1="100%" x2="100%" y2="0%"><stop offset="20%" stop-color="#242626" stop-opacity="1"></stop><stop offset="80%" stop-color="#2a2c2d" stop-opacity="1"></stop></linearGradient></defs><defs><linearGradient id="grad2_0" x1="0%" y1="100%" x2="66.7%" y2="0%"><stop offset="20%" stop-color="#191a1a" stop-opacity="1"></stop><stop offset="80%" stop-color="#191a1a" stop-opacity="1"></stop></linearGradient></defs><defs><linearGradient id="grad2_1" x1="0%" y1="100%" x2="66.7%" y2="0%"><stop offset="20%" stop-color="#1e2020" stop-opacity="1"></stop><stop offset="80%" stop-color="#191a1a" stop-opacity="1"></stop></linearGradient></defs><defs><linearGradient id="grad2_2" x1="0%" y1="100%" x2="66.7%" y2="0%"><stop offset="20%" stop-color="#1e2020" stop-opacity="1"></stop><stop offset="80%" stop-color="#242626" stop-opacity="1"></stop></linearGradient></defs><defs><linearGradient id="grad2_3" x1="0%" y1="100%" x2="66.7%" y2="0%"><stop offset="20%" stop-color="#2a2c2d" stop-opacity="1"></stop><stop offset="80%" stop-color="#242626" stop-opacity="1"></stop></linearGradient></defs><g transform="translate(900, 600)"><path d="M-486.7 0C-481.8 -27 -476.8 -53.9 -476.6 -84C-476.5 -114.2 -481 -147.5 -457.4 -166.5C-433.8 -185.5 -382 -190.2 -350.7 -202.5C-319.5 -214.8 -308.8 -234.7 -287.3 -241C-265.7 -247.4 -233.2 -240.1 -223 -265.8C-212.9 -291.6 -225.1 -350.4 -210 -363.7C-194.9 -377.1 -152.5 -345 -126.9 -348.6C-101.3 -352.2 -92.5 -391.5 -74.1 -420.5C-55.8 -449.5 -27.9 -468.1 0 -486.7L0 0Z" fill="#27292a"></path><path d="M-365.1 0C-361.3 -20.2 -357.6 -40.4 -357.5 -63C-357.3 -85.6 -360.8 -110.6 -343 -124.9C-325.3 -139.1 -286.5 -142.6 -263.1 -151.9C-239.6 -161.1 -231.6 -176 -215.4 -180.8C-199.3 -185.5 -174.9 -180 -167.3 -199.4C-159.7 -218.7 -168.8 -262.8 -157.5 -272.8C-146.2 -282.8 -114.4 -258.8 -95.2 -261.5C-76 -264.2 -69.4 -293.7 -55.6 -315.4C-41.9 -337.1 -20.9 -351.1 0 -365.1L0 0Z" fill="#212323"></path><path d="M-243.4 0C-240.9 -13.5 -238.4 -27 -238.3 -42C-238.2 -57.1 -240.5 -73.7 -228.7 -83.2C-216.9 -92.7 -191 -95.1 -175.4 -101.3C-159.8 -107.4 -154.4 -117.4 -143.6 -120.5C-132.8 -123.7 -116.6 -120 -111.5 -132.9C-106.5 -145.8 -112.6 -175.2 -105 -181.9C-97.4 -188.5 -76.2 -172.5 -63.4 -174.3C-50.6 -176.1 -46.2 -195.8 -37.1 -210.3C-27.9 -224.7 -14 -234.1 0 -243.4L0 0Z" fill="#1c1d1d"></path><path d="M-121.7 0C-120.4 -6.7 -119.2 -13.5 -119.2 -21C-119.1 -28.5 -120.3 -36.9 -114.3 -41.6C-108.4 -46.4 -95.5 -47.5 -87.7 -50.6C-79.9 -53.7 -77.2 -58.7 -71.8 -60.3C-66.4 -61.8 -58.3 -60 -55.8 -66.5C-53.2 -72.9 -56.3 -87.6 -52.5 -90.9C-48.7 -94.3 -38.1 -86.3 -31.7 -87.2C-25.3 -88.1 -23.1 -97.9 -18.5 -105.1C-14 -112.4 -7 -117 0 -121.7L0 0Z" fill="#191a1a"></path></g><g transform="translate(0, 0)"><path d="M486.7 0C486.9 30.2 487 60.3 466.8 82.3C446.6 104.3 406.1 118.1 395.6 144C385.1 169.8 404.6 207.7 388.8 224.5C373.1 241.3 322 236.9 298 250C273.9 263.2 276.9 293.9 266.1 317.1C255.3 340.4 230.8 356.3 203 351.6C175.2 346.9 144.2 321.6 126.2 346.7C108.2 371.9 103.4 447.6 84.5 479.4C65.7 511.1 32.8 498.9 0 486.7L0 0Z" fill="#27292a"></path><path d="M365.1 0C365.2 22.6 365.2 45.2 350.1 61.7C335 78.2 304.6 88.6 296.7 108C288.8 127.4 303.5 155.8 291.6 168.4C279.8 180.9 241.5 177.7 223.5 187.5C205.5 197.4 207.7 220.4 199.6 237.9C191.5 255.3 173.1 267.2 152.3 263.7C131.4 260.2 108.1 241.2 94.7 260.1C81.2 278.9 77.5 335.7 63.4 359.5C49.3 383.3 24.6 374.2 0 365.1L0 0Z" fill="#212323"></path><path d="M243.4 0C243.4 15.1 243.5 30.2 233.4 41.2C223.3 52.2 203.1 59.1 197.8 72C192.6 84.9 202.3 103.9 194.4 112.2C186.5 120.6 161 118.4 149 125C137 131.6 138.5 146.9 133.1 158.6C127.7 170.2 115.4 178.2 101.5 175.8C87.6 173.4 72.1 160.8 63.1 173.4C54.1 186 51.7 223.8 42.3 239.7C32.8 255.6 16.4 249.5 0 243.4L0 0Z" fill="#1c1d1d"></path><path d="M121.7 0C121.7 7.5 121.7 15.1 116.7 20.6C111.7 26.1 101.5 29.5 98.9 36C96.3 42.5 101.2 51.9 97.2 56.1C93.3 60.3 80.5 59.2 74.5 62.5C68.5 65.8 69.2 73.5 66.5 79.3C63.8 85.1 57.7 89.1 50.8 87.9C43.8 86.7 36 80.4 31.6 86.7C27.1 93 25.8 111.9 21.1 119.8C16.4 127.8 8.2 124.7 0 121.7L0 0Z" fill="#191a1a"></path></g></svg>