<?xml version="1.0" encoding="utf-8"?>
<!-- Uploaded to: SVG Repo, www.svgrepo.com, Generator: SVG Repo Mixer Tools -->
<svg fill="#000000" width="800px" height="800px" viewBox="0 0 32 32" version="1.1" xmlns="http://www.w3.org/2000/svg">
<title>fast-ship</title>
<path d="M17.451 22.151c-0.224-0.193-0.444-0.397-0.66-0.613-2.468-2.467-3.425-5.51-2.139-6.796s4.328-0.328 6.796 2.139c0.209 0.209 0.407 0.422 0.594 0.638l-4.050-10.471-1.454 3.069c-1.496-3.205-3.434-7.332-3.434-7.332l1.266 7.996-9.825-9.822-3.477-0.047-0.048 3.572 10.051 10.047-8.386-1.327c0 0 4.063 1.906 7.257 3.397l-2.953 1.451 10.465 4.099zM29.264 29.429l-3.172-9.146 2.677 2.218-1.088-6.208-2.706 2.928-1.474 0.368-2.097-1.145-3.124 3.124 1.145 2.096-0.367 1.469-2.873 2.656 6.208 1.088-1.98-2.519 8.852 3.070zM22.141 24.63l2.324-2.324c4.308 4.381 2.062 6.638-2.324 2.324z"></path>
</svg>