<?xml version="1.0" encoding="iso-8859-1"?>
<!-- Uploaded to: SVG Repo, www.svgrepo.com, Generator: SVG Repo Mixer Tools -->
<!DOCTYPE svg PUBLIC "-//W3C//DTD SVG 1.1//EN" "http://www.w3.org/Graphics/SVG/1.1/DTD/svg11.dtd">
<svg fill="#000000" version="1.1" id="Capa_1" xmlns="http://www.w3.org/2000/svg" xmlns:xlink="http://www.w3.org/1999/xlink" 
	 width="800px" height="800px" viewBox="0 0 111.493 111.493"
	 xml:space="preserve">
<g>
	<path d="M94.158,58.154c0.05-0.805,0.115-1.609,0.115-2.424c0-1.105-0.065-2.196-0.147-3.284l0.494,0.537
		c8.147-7.524,21.002-21.478,15.577-30.375c-3.278-5.39-11.935-6.422-25.04-2.974c-3.064,0.812-6.304,1.841-9.647,3.075
		c-5.91-3.559-12.678-5.485-19.76-5.485c-7.244,0-14.001,2.046-19.797,5.543c-16.27-5.959-30.24-7.382-34.654-0.143
		c-5.431,8.955,7.391,22.873,16.052,30.796c-0.044,0.781-0.118,1.541-0.118,2.332c0,0.815,0.074,1.613,0.124,2.424
		C4.587,69.896-3.096,81.64,1.305,88.879c2.23,3.66,6.637,4.995,11.811,4.995c7.459,0,16.452-2.724,22.9-5.1
		c5.782,3.47,12.513,5.495,19.729,5.495c7.213,0,13.942-2.025,19.732-5.481c6.298,2.307,15.397,5.065,22.911,5.065
		c5.173,0,9.594-1.303,11.825-4.985C114.613,81.612,106.924,69.864,94.158,58.154z M88.555,53.292
		c-6.636-5.48-14.144-10.81-21.877-15.51c-1.624-0.985-3.268-1.956-4.925-2.903c4.503-2.251,8.904-4.235,13.144-5.899
		C82.601,34.531,87.827,43.29,88.555,53.292z M86.584,25.045c11.793-3.075,17.467-1.77,18.835,0.471
		c1.784,2.924-1.488,10.506-12.274,21.075c-1.645-6.785-5.077-13.029-10.15-18.093c-0.607-0.599-1.252-1.16-1.893-1.721
		C82.952,26.178,84.847,25.5,86.584,25.045z M55.767,22.815c4.596,0,8.979,0.953,12.957,2.673c-4.239,1.797-8.563,3.798-12.99,6.128
		c-4.314-2.251-8.65-4.32-12.921-6.128C46.784,23.773,51.167,22.815,55.767,22.815z M6.095,25.516
		c1.984-3.226,11.027-3.188,24.409,1.204c-5.902,5.152-10.212,12.05-12.126,19.899C7.641,36.097,4.346,28.402,6.095,25.516z
		 M36.699,28.956c4.108,1.597,8.54,3.593,13.218,5.953c-1.7,0.969-3.39,1.861-5.089,2.895c-7.726,4.708-15.245,10.036-21.868,15.521
		C23.705,43.257,28.948,34.477,36.699,28.956z M6.1,85.963c-1.973-3.24,2.22-11.262,12.272-21.122
		c1.91,7.835,6.212,14.741,12.115,19.891C16.19,89.432,7.844,88.83,6.1,85.963z M23.201,60.349
		c6.443-5.667,14.619-11.741,24.541-17.782c2.689-1.63,5.376-3.122,8.053-4.576c2.606,1.427,5.253,2.924,7.978,4.576
		c9.921,6.042,18.091,12.116,24.548,17.765c-2.255,15.984-15.984,28.323-32.57,28.323C39.165,88.654,25.452,76.321,23.201,60.349z
		 M105.419,85.951c-1.724,2.846-10.096,3.469-24.372-1.23C86.94,79.571,91.23,72.676,93.14,64.83
		C103.198,74.685,107.389,82.701,105.419,85.951z"/>
</g>
</svg>